<svg width="93" height="29" fill="none" xmlns="http://www.w3.org/2000/svg"><path d="m0 16.989 7.053-7.37 5.216 5.407-1.808 1.963-.548-.557-1.511 1.56 2.46 2.597h3.022l-2.83-2.998 1.808-1.931 12.654 13.195H11.395L0 16.99Z" fill="#000"/><path d="m27.383 11.857-7.068 7.38-5.2-5.42 1.807-1.96.533.571 1.527-1.56-2.46-2.608h-3.023l2.83 2.995-1.822 1.945L1.867 0h14.107l11.41 11.857Z" fill="url(#a)"/><path d="m39.763 13.931-.876 3.803h-5.418l4.412-16.22c.227-.875.941-1.447 1.785-1.447h4.866c.876 0 1.59.572 1.784 1.447l4.412 16.22H45.31l-.876-3.803h-4.671Zm2.952-7.672c-.13-.64-.26-1.38-.292-2.019h-.681c-.065.64-.162 1.38-.292 2.02l-.844 3.768h2.92l-.81-3.769ZM57.12 12.417c0 .539.389.909 1.038.909h5.71l.259 4.139c-2.53.37-5.515.37-8.305.37-2.466 0-4.056-1.649-4.056-4.004V.1h5.353v12.316ZM78.271 17.498c-2.465.337-5.904.337-8.856.337-2.336 0-3.99-1.649-3.99-4.005V4.004c0-2.389 1.654-4.004 3.99-4.004 2.92 0 6.39 0 8.856.337l-.26 3.903h-6.228c-.616 0-1.006.37-1.006.909v1.716h6.359v3.701h-6.359v2.12c0 .539.39.909 1.006.909h6.229l.26 3.903ZM86.577 4.24c-.681 0-1.07.37-1.07.909v2.086h6.098v3.668H85.54v6.83h-5.353V4.005C80.186 1.615 81.873 0 84.24 0c2.823 0 6.229 0 8.565.37l-.26 3.904h-5.97V4.24ZM33.565 25.226c.323-.038.678-.038 1.065-.038.871 0 1.194.495 1.194 1.906 0 1.41-.323 1.906-1.194 1.906-.42 0-.775-.038-1.065-.038v-3.736Zm.29 3.393h.775c.645 0 .871-.42.871-1.563 0-1.144-.226-1.601-.871-1.601h-.775v3.164ZM41.309 28.885c-.42.038-.903.038-1.323.038-.323 0-.548-.229-.548-.61v-2.478c0-.38.225-.61.548-.61.452 0 .904 0 1.323.038l-.032.267h-1.259c-.193 0-.29.115-.29.381v.915h1.387v.267h-1.387v1.144c0 .267.097.381.29.381h1.259l.032.267ZM46.052 28.809c-.032.076-.065.114-.13.114H45.6c-.065 0-.097-.038-.129-.114l-1-3.584h.322l.807 3.012c.032.153.065.267.097.42h.129c.032-.115.064-.267.097-.42l.806-3.012h.323l-1 3.584ZM52.312 28.885c-.42.038-.903.038-1.323.038-.322 0-.548-.229-.548-.61v-2.478c0-.38.225-.61.548-.61.452 0 .904 0 1.323.038l-.032.267H51.02c-.193 0-.29.115-.29.381v.915h1.387v.267h-1.387v1.144c0 .267.097.381.29.381h1.259l.032.267ZM56.152 28.199c0 .267.129.381.322.381h1.162v.267c-.387.038-.807.038-1.226.038-.387 0-.581-.267-.581-.648v-3.05h.29V28.2h.033ZM63.25 27.055c0 1.41-.323 1.906-1.194 1.906s-1.194-.495-1.194-1.906c0-1.41.323-1.906 1.194-1.906s1.194.496 1.194 1.906Zm-2.097 0c0 1.182.226 1.601.903 1.601.678 0 .904-.419.904-1.6 0-1.183-.226-1.602-.904-1.602-.677 0-.903.42-.903 1.601ZM66.864 25.225c.323-.038.549-.038 1.033-.038.71 0 .968.229.968 1.144 0 .877-.258 1.144-.936 1.144-.323 0-.58-.039-.774-.039v1.525h-.29v-3.736Zm1.033 1.906c.484 0 .677-.152.677-.838 0-.648-.161-.839-.677-.839h-.742v1.64h.742v.037ZM75.286 25.225c.097 0 .129.077.129.153l.129 3.545h-.29l-.13-3.393h-.096l-.807 2.898c-.032.076-.065.114-.13.114h-.29c-.064 0-.129-.038-.129-.114l-.806-2.898h-.097l-.13 3.393h-.29l.13-3.545c0-.114.032-.153.129-.153h.355c.064 0 .096.038.129.115l.677 2.401c.032.153.097.343.13.496h.096c.032-.152.097-.343.13-.496l.677-2.401c.032-.076.064-.115.129-.115h.355ZM81.061 28.885c-.42.038-.903.038-1.323.038-.322 0-.548-.229-.548-.61v-2.478c0-.38.226-.61.548-.61.452 0 .904 0 1.323.038l-.032.267h-1.258c-.194 0-.29.115-.29.381v.915h1.387v.267H79.48v1.144c0 .267.097.381.29.381h1.259l.032.267ZM86.933 28.733c0 .114-.032.152-.129.152h-.322c-.065 0-.13-.038-.13-.114l-1.193-2.783a1.825 1.825 0 0 1-.162-.458h-.096v3.355h-.29V25.34c0-.115.032-.153.128-.153h.323c.065 0 .13.038.13.115l1.16 2.744c.065.153.13.344.194.496h.097v-3.354h.29v3.545ZM91.677 25.53v3.393h-.29V25.53h-1.033v-.305h2.388v.305h-1.065ZM93 21.955H33.307v.675H93v-.675Z" fill="#000"/><defs><linearGradient id="a" x1="14.621" y1="19.234" x2="14.621" y2=".004" gradientUnits="userSpaceOnUse"><stop stop-color="#2B5972"/><stop offset="1" stop-color="#427FA2"/></linearGradient></defs></svg>